<svg xmlns="http://www.w3.org/2000/svg" id="search" width="24" height="24" viewBox="0 0 24 24" fill="none">
  <path fill-rule="evenodd" clip-rule="evenodd" d="M10.4991 2.95992C8.49933 2.95992 6.5815 3.75431 5.16748 5.16833C3.75345 6.58236 2.95906 8.50019 2.95906 10.4999C2.95906 12.4997 3.75345 14.4175 5.16748 15.8315C6.5815 17.2455 8.49933 18.0399 10.4991 18.0399C12.4899 18.0399 14.3996 17.2526 15.8118 15.8503C15.8193 15.8423 15.827 15.8343 15.8348 15.8265C15.842 15.8194 15.8492 15.8124 15.8565 15.8056C17.2543 14.3941 18.0391 12.4874 18.0391 10.4999C18.0391 8.50018 17.2447 6.58236 15.8306 5.16833C14.4166 3.75431 12.4988 2.95992 10.4991 2.95992ZM17.8357 16.472C19.203 14.7925 19.9591 12.6852 19.9591 10.4999C19.9591 7.99097 18.9624 5.58478 17.1883 3.81069C15.4142 2.03659 13.008 1.03992 10.4991 1.03992C7.99011 1.03992 5.58393 2.03659 3.80983 3.81069C2.03574 5.58478 1.03906 7.99097 1.03906 10.4999C1.03906 13.0089 2.03574 15.4151 3.80983 17.1891C5.58393 18.9632 7.99011 19.9599 10.4991 19.9599C12.6876 19.9599 14.7979 19.2016 16.4787 17.8304L20.3196 21.6781C20.6942 22.0534 21.302 22.0539 21.6773 21.6793C22.0525 21.3048 22.0531 20.6969 21.6785 20.3217L17.8357 16.472Z" fill="#171717" />
</svg>
